<svg id="diagram-fixture" width="100%" xmlns="http://www.w3.org/2000/svg" class="erDiagram" style="max-width: 457.75px;" viewBox="0 0 457.75 742" role="graphics-document document" aria-roledescription="er"><style>#diagram-fixture{font-family:"trebuchet ms",verdana,arial,sans-serif;font-size:16px;fill:#ccc;}@keyframes edge-animation-frame{from{stroke-dashoffset:0;}}@keyframes dash{to{stroke-dashoffset:0;}}#diagram-fixture .edge-animation-slow{stroke-dasharray:9,5!important;stroke-dashoffset:900;animation:dash 50s linear infinite;stroke-linecap:round;}#diagram-fixture .edge-animation-fast{stroke-dasharray:9,5!important;stroke-dashoffset:900;animation:dash 20s linear infinite;stroke-linecap:round;}#diagram-fixture .error-icon{fill:#a44141;}#diagram-fixture .error-text{fill:#ddd;stroke:#ddd;}#diagram-fixture .edge-thickness-normal{stroke-width:1px;}#diagram-fixture .edge-thickness-thick{stroke-width:3.5px;}#diagram-fixture .edge-pattern-solid{stroke-dasharray:0;}#diagram-fixture .edge-thickness-invisible{stroke-width:0;fill:none;}#diagram-fixture .edge-pattern-dashed{stroke-dasharray:3;}#diagram-fixture .edge-pattern-dotted{stroke-dasharray:2;}#diagram-fixture .marker{fill:#64748b;stroke:#64748b;}#diagram-fixture .marker.cross{stroke:#64748b;}#diagram-fixture svg{font-family:"trebuchet ms",verdana,arial,sans-serif;font-size:16px;}#diagram-fixture p{margin:0;}#diagram-fixture .entityBox{fill:#1e293b;stroke:#475569;}#diagram-fixture .relationshipLabelBox{fill:#0f172a;opacity:0.7;background-color:#0f172a;}#diagram-fixture .relationshipLabelBox rect{opacity:0.5;}#diagram-fixture .labelBkg{background-color:rgba(15, 23, 42, 0.5);}#diagram-fixture .edgeLabel{background-color:#1e293b;}#diagram-fixture .edgeLabel .label rect{fill:#1e293b;}#diagram-fixture .edgeLabel .label text{fill:#ccc;}#diagram-fixture .edgeLabel .label{fill:#475569;font-size:14px;}#diagram-fixture .label{font-family:"trebuchet ms",verdana,arial,sans-serif;color:#ccc;}#diagram-fixture .edge-pattern-dashed{stroke-dasharray:8,8;}#diagram-fixture .node rect,#diagram-fixture .node circle,#diagram-fixture .node ellipse,#diagram-fixture .node polygon{fill:#1e293b;stroke:#475569;stroke-width:1px;}#diagram-fixture .relationshipLine{stroke:#64748b;stroke-width:1px;fill:none;}#diagram-fixture .marker{fill:none!important;stroke:#64748b!important;stroke-width:1;}#diagram-fixture [data-look=neo].labelBkg{background-color:rgba(15, 23, 42, 0.5);}#diagram-fixture .cluster rect{fill:#1e293b;stroke:#475569;stroke-width:1px;}#diagram-fixture .cluster text{fill:#f8fafc;}#diagram-fixture .cluster-label text{fill:#f8fafc;}#diagram-fixture .node .neo-node{stroke:#475569;}#diagram-fixture [data-look="neo"].node rect,#diagram-fixture [data-look="neo"].cluster rect,#diagram-fixture [data-look="neo"].node polygon{stroke:url(#diagram-fixture-gradient);filter:drop-shadow( 1px 2px 2px rgba(185,185,185,1));}#diagram-fixture [data-look="neo"].swimlane.cluster rect{filter:none;}#diagram-fixture [data-look="neo"].node path{stroke:url(#diagram-fixture-gradient);stroke-width:1px;}#diagram-fixture [data-look="neo"].node .outer-path{filter:drop-shadow( 1px 2px 2px rgba(185,185,185,1));}#diagram-fixture [data-look="neo"].node .neo-line path{stroke:#475569;filter:none;}#diagram-fixture [data-look="neo"].node circle{stroke:url(#diagram-fixture-gradient);filter:drop-shadow( 1px 2px 2px rgba(185,185,185,1));}#diagram-fixture [data-look="neo"].node circle .state-start{fill:#000000;}#diagram-fixture [data-look="neo"].icon-shape .icon{fill:url(#diagram-fixture-gradient);filter:drop-shadow( 1px 2px 2px rgba(185,185,185,1));}#diagram-fixture [data-look="neo"].icon-shape .icon-neo path{stroke:url(#diagram-fixture-gradient);filter:drop-shadow( 1px 2px 2px rgba(185,185,185,1));}#diagram-fixture :root{--mermaid-font-family:"trebuchet ms",verdana,arial,sans-serif;}</style><g><defs><marker id="diagram-fixture_er-onlyOneStart" class="marker onlyOne er" refX="0" refY="9" markerWidth="18" markerHeight="18" orient="auto"><path d="M9,0 L9,18 M15,0 L15,18"></path></marker></defs><defs><marker id="diagram-fixture_er-onlyOneEnd" class="marker onlyOne er" refX="18" refY="9" markerWidth="18" markerHeight="18" orient="auto"><path d="M3,0 L3,18 M9,0 L9,18"></path></marker></defs><defs><marker id="diagram-fixture_er-zeroOrOneStart" class="marker zeroOrOne er" refX="0" refY="9" markerWidth="30" markerHeight="18" orient="auto"><circle fill="white" cx="21" cy="9" r="6"></circle><path d="M9,0 L9,18"></path></marker></defs><defs><marker id="diagram-fixture_er-zeroOrOneEnd" class="marker zeroOrOne er" refX="30" refY="9" markerWidth="30" markerHeight="18" orient="auto"><circle fill="white" cx="9" cy="9" r="6"></circle><path d="M21,0 L21,18"></path></marker></defs><defs><marker id="diagram-fixture_er-oneOrMoreStart" class="marker oneOrMore er" refX="18" refY="18" markerWidth="45" markerHeight="36" orient="auto"><path d="M0,18 Q 18,0 36,18 Q 18,36 0,18 M42,9 L42,27"></path></marker></defs><defs><marker id="diagram-fixture_er-oneOrMoreEnd" class="marker oneOrMore er" refX="27" refY="18" markerWidth="45" markerHeight="36" orient="auto"><path d="M3,9 L3,27 M9,18 Q27,0 45,18 Q27,36 9,18"></path></marker></defs><defs><marker id="diagram-fixture_er-zeroOrMoreStart" class="marker zeroOrMore er" refX="18" refY="18" markerWidth="57" markerHeight="36" orient="auto"><circle fill="white" cx="48" cy="18" r="6"></circle><path d="M0,18 Q18,0 36,18 Q18,36 0,18"></path></marker></defs><defs><marker id="diagram-fixture_er-zeroOrMoreEnd" class="marker zeroOrMore er" refX="39" refY="18" markerWidth="57" markerHeight="36" orient="auto"><circle fill="white" cx="9" cy="18" r="6"></circle><path d="M21,18 Q39,0 57,18 Q39,36 21,18"></path></marker></defs><g class="root"><g class="clusters"></g><g class="edgePaths"><path d="M226.328,92L226.328,100.417C226.328,108.833,226.328,125.667,226.328,142.5C226.328,159.333,226.328,176.167,226.328,184.583L226.328,193" id="diagram-fixture-id_entity-PROJECT-0_entity-PLAN-1_0" class="edge-thickness-normal edge-pattern-solid relationshipLine" style="undefined;;;undefined" data-edge="true" data-et="edge" data-id="id_entity-PROJECT-0_entity-PLAN-1_0" data-points="W3sieCI6MjI2LjMyODEyNSwieSI6OTJ9LHsieCI6MjI2LjMyODEyNSwieSI6MTQyLjV9LHsieCI6MjI2LjMyODEyNSwieSI6MTkzfV0=" data-look="classic" marker-start="url(#diagram-fixture_er-onlyOneStart)" marker-end="url(#diagram-fixture_er-zeroOrMoreEnd)"></path><path d="M176.328,266.801L160.422,276.917C144.516,287.034,112.703,307.267,96.797,325.8C80.891,344.333,80.891,361.167,80.891,369.583L80.891,378" id="diagram-fixture-id_entity-PLAN-1_entity-VERSION-2_1" class="edge-thickness-normal edge-pattern-solid relationshipLine" style="undefined;;;undefined" data-edge="true" data-et="edge" data-id="id_entity-PLAN-1_entity-VERSION-2_1" data-points="W3sieCI6MTc2LjMyODEyNSwieSI6MjY2LjgwMDYwMTYzMzAwMzg1fSx7IngiOjgwLjg5MDYyNSwieSI6MzI3LjV9LHsieCI6ODAuODkwNjI1LCJ5IjozNzh9XQ==" data-look="classic" marker-start="url(#diagram-fixture_er-onlyOneStart)" marker-end="url(#diagram-fixture_er-oneOrMoreEnd)"></path><path d="M276.328,266.801L292.234,276.917C308.141,287.034,339.953,307.267,355.859,329.363C371.766,351.458,371.766,375.417,371.766,387.396L371.766,399.375" id="diagram-fixture-id_entity-PLAN-1_entity-DECISION-3_2" class="edge-thickness-normal edge-pattern-solid relationshipLine" style="undefined;;;undefined" data-edge="true" data-et="edge" data-id="id_entity-PLAN-1_entity-DECISION-3_2" data-points="W3sieCI6Mjc2LjMyODEyNSwieSI6MjY2LjgwMDYwMTYzMzAwMzg1fSx7IngiOjM3MS43NjU2MjUsInkiOjMyNy41fSx7IngiOjM3MS43NjU2MjUsInkiOjM5OS4zNzV9XQ==" data-look="classic" marker-start="url(#diagram-fixture_er-onlyOneStart)" marker-end="url(#diagram-fixture_er-zeroOrMoreEnd)"></path><path d="M371.766,527.625L371.766,539.604C371.766,551.583,371.766,575.542,371.766,595.938C371.766,616.333,371.766,633.167,371.766,641.583L371.766,650" id="diagram-fixture-id_entity-DECISION-3_entity-REVIEWER-4_3" class="edge-thickness-normal edge-pattern-solid relationshipLine" style="undefined;;;undefined" data-edge="true" data-et="edge" data-id="id_entity-DECISION-3_entity-REVIEWER-4_3" data-points="W3sieCI6MzcxLjc2NTYyNSwieSI6NTI3LjYyNX0seyJ4IjozNzEuNzY1NjI1LCJ5Ijo1OTkuNX0seyJ4IjozNzEuNzY1NjI1LCJ5Ijo2NTB9XQ==" data-look="classic" marker-start="url(#diagram-fixture_er-zeroOrMoreStart)" marker-end="url(#diagram-fixture_er-onlyOneEnd)"></path></g><g class="edgeLabels"><g class="edgeLabel" transform="translate(226.328125, 142.5)"><g class="label" data-id="id_entity-PROJECT-0_entity-PLAN-1_0" transform="translate(-26.15625, -10.5)"><foreignObject width="52.3125" height="21"><div xmlns="http://www.w3.org/1999/xhtml" class="labelBkg" style="display: table-cell; white-space: nowrap; line-height: 1.5; max-width: 200px; text-align: center;"><span class="edgeLabel"><p>contains</p></span></div></foreignObject></g></g><g class="edgeLabel" transform="translate(80.890625, 327.5)"><g class="label" data-id="id_entity-PLAN-1_entity-VERSION-2_1" transform="translate(-37.65625, -10.5)"><foreignObject width="75.3125" height="21"><div xmlns="http://www.w3.org/1999/xhtml" class="labelBkg" style="display: table-cell; white-space: nowrap; line-height: 1.5; max-width: 200px; text-align: center;"><span class="edgeLabel"><p>has versions</p></span></div></foreignObject></g></g><g class="edgeLabel" transform="translate(371.765625, 327.5)"><g class="label" data-id="id_entity-PLAN-1_entity-DECISION-3_2" transform="translate(-23.21875, -10.5)"><foreignObject width="46.4375" height="21"><div xmlns="http://www.w3.org/1999/xhtml" class="labelBkg" style="display: table-cell; white-space: nowrap; line-height: 1.5; max-width: 200px; text-align: center;"><span class="edgeLabel"><p>records</p></span></div></foreignObject></g></g><g class="edgeLabel" transform="translate(371.765625, 599.5)"><g class="label" data-id="id_entity-DECISION-3_entity-REVIEWER-4_3" transform="translate(-26.671875, -10.5)"><foreignObject width="53.34375" height="21"><div xmlns="http://www.w3.org/1999/xhtml" class="labelBkg" style="display: table-cell; white-space: nowrap; line-height: 1.5; max-width: 200px; text-align: center;"><span class="edgeLabel"><p>made by</p></span></div></foreignObject></g></g></g><g class="nodes"><g class="node default" id="diagram-fixture-entity-PROJECT-0" data-look="classic" transform="translate(226.328125, 50)"><rect class="basic label-container" style="" x="-52.0390625" y="-42" width="104.078125" height="84"></rect><g class="label" style="" transform="translate(-32.0390625, -12)"><rect></rect><foreignObject width="64.078125" height="24"><div xmlns="http://www.w3.org/1999/xhtml" style="display: table-cell; white-space: nowrap; line-height: 1.5; max-width: 200px; text-align: center;"><span class="nodeLabel markdown-node-label"><p>PROJECT</p></span></div></foreignObject></g></g><g class="node default" id="diagram-fixture-entity-PLAN-1" data-look="classic" transform="translate(226.328125, 235)"><rect class="basic label-container" style="" x="-50" y="-42" width="100" height="84"></rect><g class="label" style="" transform="translate(-18.3359375, -12)"><rect></rect><foreignObject width="36.671875" height="24"><div xmlns="http://www.w3.org/1999/xhtml" style="display: table-cell; white-space: nowrap; line-height: 1.5; max-width: 100px; text-align: center;"><span class="nodeLabel markdown-node-label"><p>PLAN</p></span></div></foreignObject></g></g><g class="node default" id="diagram-fixture-entity-VERSION-2" data-look="classic" transform="translate(80.890625, 463.5)"><g class="outer-path" style=""><path d="M-72.890625 -85.5 L72.890625 -85.5 L72.890625 85.5 L-72.890625 85.5" stroke="none" stroke-width="0" fill="#1e293b"></path><path d="M-72.890625 -85.5 C-31.19158587226812 -85.5, 10.507453255463759 -85.5, 72.890625 -85.5 M-72.890625 -85.5 C-29.932922996097844 -85.5, 13.024779007804312 -85.5, 72.890625 -85.5 M72.890625 -85.5 C72.890625 -45.938968777442234, 72.890625 -6.377937554884468, 72.890625 85.5 M72.890625 -85.5 C72.890625 -26.65485551922584, 72.890625 32.19028896154832, 72.890625 85.5 M72.890625 85.5 C25.38370374929982 85.5, -22.12321750140036 85.5, -72.890625 85.5 M72.890625 85.5 C32.54712340250754 85.5, -7.796378194984925 85.5, -72.890625 85.5 M-72.890625 85.5 C-72.890625 39.7032795749758, -72.890625 -6.093440850048395, -72.890625 -85.5 M-72.890625 85.5 C-72.890625 41.02465754685023, -72.890625 -3.450684906299543, -72.890625 -85.5" stroke="#475569" stroke-width="1.3" fill="none" stroke-dasharray="0 0"></path></g><g style="" class="row-rect-odd"><path d="M-72.890625 -42.75 L72.890625 -42.75 L72.890625 0 L-72.890625 0" stroke="none" stroke-width="0" fill="hsl(180, 1.5873015873%, 17.3529411765%)"></path><path d="M-72.890625 -42.75 C-38.27068789026768 -42.75, -3.650750780535361 -42.75, 72.890625 -42.75 M-72.890625 -42.75 C-18.137190618638982 -42.75, 36.616243762722036 -42.75, 72.890625 -42.75 M72.890625 -42.75 C72.890625 -34.01812015057392, 72.890625 -25.28624030114785, 72.890625 0 M72.890625 -42.75 C72.890625 -28.614371086978075, 72.890625 -14.47874217395615, 72.890625 0 M72.890625 0 C41.92359130457474 0, 10.956557609149478 0, -72.890625 0 M72.890625 0 C32.66357473426926 0, -7.563475531461478 0, -72.890625 0 M-72.890625 0 C-72.890625 -13.606224281919852, -72.890625 -27.212448563839704, -72.890625 -42.75 M-72.890625 0 C-72.890625 -10.741488153212979, -72.890625 -21.482976306425957, -72.890625 -42.75" stroke="#475569" stroke-width="1.3" fill="none" stroke-dasharray="0 0"></path></g><g style="" class="row-rect-even"><path d="M-72.890625 0 L72.890625 0 L72.890625 42.75 L-72.890625 42.75" stroke="none" stroke-width="0" fill="hsl(180, 1.5873015873%, 2.3529411765%)"></path><path d="M-72.890625 0 C-40.654832445779576 0, -8.419039891559152 0, 72.890625 0 M-72.890625 0 C-40.33858613623825 0, -7.786547272476497 0, 72.890625 0 M72.890625 0 C72.890625 16.62683949881599, 72.890625 33.25367899763198, 72.890625 42.75 M72.890625 0 C72.890625 13.205080488825104, 72.890625 26.410160977650207, 72.890625 42.75 M72.890625 42.75 C29.155579900740754 42.75, -14.579465198518491 42.75, -72.890625 42.75 M72.890625 42.75 C22.417276981426724 42.75, -28.056071037146552 42.75, -72.890625 42.75 M-72.890625 42.75 C-72.890625 30.719388996334807, -72.890625 18.688777992669614, -72.890625 0 M-72.890625 42.75 C-72.890625 31.68479179509343, -72.890625 20.61958359018686, -72.890625 0" stroke="#475569" stroke-width="1.3" fill="none" stroke-dasharray="0 0"></path></g><g style="" class="row-rect-odd"><path d="M-72.890625 42.75 L72.890625 42.75 L72.890625 85.5 L-72.890625 85.5" stroke="none" stroke-width="0" fill="hsl(180, 1.5873015873%, 17.3529411765%)"></path><path d="M-72.890625 42.75 C-16.4692027075414 42.75, 39.9522195849172 42.75, 72.890625 42.75 M-72.890625 42.75 C-32.84124104126098 42.75, 7.2081429174780425 42.75, 72.890625 42.75 M72.890625 42.75 C72.890625 56.64360929125012, 72.890625 70.53721858250024, 72.890625 85.5 M72.890625 42.75 C72.890625 53.814402268060114, 72.890625 64.87880453612023, 72.890625 85.5 M72.890625 85.5 C29.217575071872048 85.5, -14.455474856255904 85.5, -72.890625 85.5 M72.890625 85.5 C36.17243018621789 85.5, -0.5457646275642247 85.5, -72.890625 85.5 M-72.890625 85.5 C-72.890625 74.46252891637111, -72.890625 63.425057832742226, -72.890625 42.75 M-72.890625 85.5 C-72.890625 76.48405015144486, -72.890625 67.46810030288971, -72.890625 42.75" stroke="#475569" stroke-width="1.3" fill="none" stroke-dasharray="0 0"></path></g><g class="label name" transform="translate(-30.2109375, -76.125)" style=""><foreignObject width="60.421875" height="24"><div xmlns="http://www.w3.org/1999/xhtml" style="display: table-cell; white-space: nowrap; line-height: 1.5; max-width: 169px; text-align: start;"><span class="nodeLabel"><p>VERSION</p></span></div></foreignObject></g><g class="label attribute-type" transform="translate(-60.390625, -33.375)" style=""><foreignObject width="19.65625" height="24"><div xmlns="http://www.w3.org/1999/xhtml" style="display: table-cell; white-space: nowrap; line-height: 1.5; max-width: 117px; text-align: start;"><span class="nodeLabel"><p>int</p></span></div></foreignObject></g><g class="label attribute-name" transform="translate(4.984375, -33.375)" style=""><foreignObject width="54.625" height="24"><div xmlns="http://www.w3.org/1999/xhtml" style="display: table-cell; white-space: nowrap; line-height: 1.5; max-width: 149px; text-align: start;"><span class="nodeLabel"><p>number</p></span></div></foreignObject></g><g class="label attribute-keys" transform="translate(85.390625, -33.375)" style=""><foreignObject width="0" height="0"><div xmlns="http://www.w3.org/1999/xhtml" style="display: table-cell; white-space: nowrap; line-height: 1.5; max-width: 100px; text-align: start;"><span class="nodeLabel"></span></div></foreignObject></g><g class="label attribute-comment" transform="translate(85.390625, -33.375)" style=""><foreignObject width="0" height="0"><div xmlns="http://www.w3.org/1999/xhtml" style="display: table-cell; white-space: nowrap; line-height: 1.5; max-width: 100px; text-align: start;"><span class="nodeLabel"></span></div></foreignObject></g><g class="label attribute-type" transform="translate(-60.390625, 9.375)" style=""><foreignObject width="40.375" height="24"><div xmlns="http://www.w3.org/1999/xhtml" style="display: table-cell; white-space: nowrap; line-height: 1.5; max-width: 136px; text-align: start;"><span class="nodeLabel"><p>string</p></span></div></foreignObject></g><g class="label attribute-name" transform="translate(4.984375, 9.375)" style=""><foreignObject width="27.96875" height="24"><div xmlns="http://www.w3.org/1999/xhtml" style="display: table-cell; white-space: nowrap; line-height: 1.5; max-width: 127px; text-align: start;"><span class="nodeLabel"><p>slug</p></span></div></foreignObject></g><g class="label attribute-keys" transform="translate(85.390625, 9.375)" style=""><foreignObject width="0" height="0"><div xmlns="http://www.w3.org/1999/xhtml" style="display: table-cell; white-space: nowrap; line-height: 1.5; max-width: 100px; text-align: start;"><span class="nodeLabel"></span></div></foreignObject></g><g class="label attribute-comment" transform="translate(85.390625, 9.375)" style=""><foreignObject width="0" height="0"><div xmlns="http://www.w3.org/1999/xhtml" style="display: table-cell; white-space: nowrap; line-height: 1.5; max-width: 100px; text-align: start;"><span class="nodeLabel"></span></div></foreignObject></g><g class="label attribute-type" transform="translate(-60.390625, 52.125)" style=""><foreignObject width="40.375" height="24"><div xmlns="http://www.w3.org/1999/xhtml" style="display: table-cell; white-space: nowrap; line-height: 1.5; max-width: 136px; text-align: start;"><span class="nodeLabel"><p>string</p></span></div></foreignObject></g><g class="label attribute-name" transform="translate(4.984375, 52.125)" style=""><foreignObject width="55.40625" height="24"><div xmlns="http://www.w3.org/1999/xhtml" style="display: table-cell; white-space: nowrap; line-height: 1.5; max-width: 147px; text-align: start;"><span class="nodeLabel"><p>content</p></span></div></foreignObject></g><g class="label attribute-keys" transform="translate(85.390625, 52.125)" style=""><foreignObject width="0" height="0"><div xmlns="http://www.w3.org/1999/xhtml" style="display: table-cell; white-space: nowrap; line-height: 1.5; max-width: 100px; text-align: start;"><span class="nodeLabel"></span></div></foreignObject></g><g class="label attribute-comment" transform="translate(85.390625, 52.125)" style=""><foreignObject width="0" height="0"><div xmlns="http://www.w3.org/1999/xhtml" style="display: table-cell; white-space: nowrap; line-height: 1.5; max-width: 100px; text-align: start;"><span class="nodeLabel"></span></div></foreignObject></g><g class="divider"><path d="M-72.890625 -42.75005 L-72.890625 -42.74995 L72.890625 -42.74995 L72.890625 -42.75005" stroke="none" stroke-width="0" fill="#1e293b" fill-rule="evenodd"></path><path d="M-72.890625 -42.75005 C-72.890625 -42.75002174272777, -72.890625 -42.749993485455526, -72.890625 -42.74995 M-72.890625 -42.75005 C-72.890625 -42.75001783706775, -72.890625 -42.749985674135495, -72.890625 -42.74995 M-72.890625 -42.74995 C-34.022366013053066 -42.74995, 4.845892973893868 -42.74995, 72.890625 -42.74995 M-72.890625 -42.74995 C-20.591522710118902 -42.74995, 31.707579579762196 -42.74995, 72.890625 -42.74995 M72.890625 -42.74995 C72.890625 -42.749985497216535, 72.890625 -42.75002099443308, 72.890625 -42.75005 M72.890625 -42.74995 C72.890625 -42.74997784252223, 72.890625 -42.75000568504445, 72.890625 -42.75005 M72.890625 -42.75005 C15.456857199302327 -42.75005, -41.976910601395346 -42.75005, -72.890625 -42.75005 M72.890625 -42.75005 C43.30054596644275 -42.75005, 13.710466932885495 -42.75005, -72.890625 -42.75005" stroke="#475569" stroke-width="1.3" fill="none" stroke-dasharray="0 0"></path></g><g class="divider"><path d="M-7.515675 -42.75 L-7.515575 -42.75 L-7.515575 85.5 L-7.515675 85.5" stroke="none" stroke-width="0" fill="#1e293b" fill-rule="evenodd"></path><path d="M-7.515675 -42.75 C-7.515644342267052 -42.75, -7.515613684534104 -42.75, -7.515575 -42.75 M-7.515675 -42.75 C-7.515639305911494 -42.75, -7.5156036118229865 -42.75, -7.515575 -42.75 M-7.515575 -42.75 C-7.515575 -16.09510150293497, -7.515575 10.55979699413006, -7.515575 85.5 M-7.515575 -42.75 C-7.515575 5.490324016068513, -7.515575 53.730648032137026, -7.515575 85.5 M-7.515575 85.5 C-7.515606897481298 85.5, -7.515638794962596 85.5, -7.515675 85.5 M-7.515575 85.5 C-7.51561379174649 85.5, -7.5156525834929795 85.5, -7.515675 85.5 M-7.515675 85.5 C-7.515675 47.539279677119545, -7.515675 9.57855935423909, -7.515675 -42.75 M-7.515675 85.5 C-7.515675 55.2852305395179, -7.515675 25.070461079035795, -7.515675 -42.75" stroke="#475569" stroke-width="1.3" fill="none" stroke-dasharray="0 0"></path></g><g class="divider"><path d="M-72.890625 -42.75005 L-72.890625 -42.74995 L72.890625 -42.74995 L72.890625 -42.75005" stroke="none" stroke-width="0" fill="#1e293b" fill-rule="evenodd"></path><path d="M-72.890625 -42.75005 C-72.890625 -42.75002421176145, -72.890625 -42.749998423522904, -72.890625 -42.74995 M-72.890625 -42.75005 C-72.890625 -42.75002379777698, -72.890625 -42.749997595553964, -72.890625 -42.74995 M-72.890625 -42.74995 C-27.16358109563376 -42.74995, 18.56346280873248 -42.74995, 72.890625 -42.74995 M-72.890625 -42.74995 C-37.4216324184804 -42.74995, -1.952639836960799 -42.74995, 72.890625 -42.74995 M72.890625 -42.74995 C72.890625 -42.74997156657421, 72.890625 -42.749993133148415, 72.890625 -42.75005 M72.890625 -42.74995 C72.890625 -42.74997527286764, 72.890625 -42.750000545735276, 72.890625 -42.75005 M72.890625 -42.75005 C21.528367211403392 -42.75005, -29.833890577193216 -42.75005, -72.890625 -42.75005 M72.890625 -42.75005 C38.8572265775548 -42.75005, 4.823828155109595 -42.75005, -72.890625 -42.75005" stroke="#475569" stroke-width="1.3" fill="none" stroke-dasharray="0 0"></path></g></g><g class="node default" id="diagram-fixture-entity-DECISION-3" data-look="classic" transform="translate(371.765625, 463.5)"><g class="outer-path" style=""><path d="M-77.984375 -64.125 L77.984375 -64.125 L77.984375 64.125 L-77.984375 64.125" stroke="none" stroke-width="0" fill="#1e293b"></path><path d="M-77.984375 -64.125 C-26.441686676870475 -64.125, 25.10100164625905 -64.125, 77.984375 -64.125 M-77.984375 -64.125 C-36.013026039071015 -64.125, 5.95832292185797 -64.125, 77.984375 -64.125 M77.984375 -64.125 C77.984375 -36.93365700197177, 77.984375 -9.742314003943541, 77.984375 64.125 M77.984375 -64.125 C77.984375 -35.50573630275212, 77.984375 -6.886472605504238, 77.984375 64.125 M77.984375 64.125 C26.939657449865543 64.125, -24.105060100268915 64.125, -77.984375 64.125 M77.984375 64.125 C21.47632233667067 64.125, -35.03173032665866 64.125, -77.984375 64.125 M-77.984375 64.125 C-77.984375 33.86890935914768, -77.984375 3.612818718295351, -77.984375 -64.125 M-77.984375 64.125 C-77.984375 25.73262645091161, -77.984375 -12.65974709817678, -77.984375 -64.125" stroke="#475569" stroke-width="1.3" fill="none" stroke-dasharray="0 0"></path></g><g style="" class="row-rect-odd"><path d="M-77.984375 -21.375 L77.984375 -21.375 L77.984375 21.375 L-77.984375 21.375" stroke="none" stroke-width="0" fill="hsl(180, 1.5873015873%, 17.3529411765%)"></path><path d="M-77.984375 -21.375 C-22.178074043154687 -21.375, 33.628226913690625 -21.375, 77.984375 -21.375 M-77.984375 -21.375 C-39.05678835150732 -21.375, -0.12920170301464395 -21.375, 77.984375 -21.375 M77.984375 -21.375 C77.984375 -6.383565595464702, 77.984375 8.607868809070595, 77.984375 21.375 M77.984375 -21.375 C77.984375 -8.238974623905227, 77.984375 4.897050752189546, 77.984375 21.375 M77.984375 21.375 C43.18871321038242 21.375, 8.393051420764834 21.375, -77.984375 21.375 M77.984375 21.375 C16.807725186254082 21.375, -44.368924627491836 21.375, -77.984375 21.375 M-77.984375 21.375 C-77.984375 6.122615377215455, -77.984375 -9.12976924556909, -77.984375 -21.375 M-77.984375 21.375 C-77.984375 9.18195689936755, -77.984375 -3.0110862012648987, -77.984375 -21.375" stroke="#475569" stroke-width="1.3" fill="none" stroke-dasharray="0 0"></path></g><g style="" class="row-rect-even"><path d="M-77.984375 21.375 L77.984375 21.375 L77.984375 64.125 L-77.984375 64.125" stroke="none" stroke-width="0" fill="hsl(180, 1.5873015873%, 2.3529411765%)"></path><path d="M-77.984375 21.375 C-16.50608227996944 21.375, 44.97221044006112 21.375, 77.984375 21.375 M-77.984375 21.375 C-40.065749439031585 21.375, -2.1471238780631694 21.375, 77.984375 21.375 M77.984375 21.375 C77.984375 36.16524940496147, 77.984375 50.95549880992294, 77.984375 64.125 M77.984375 21.375 C77.984375 34.35832347228967, 77.984375 47.34164694457934, 77.984375 64.125 M77.984375 64.125 C38.78279664257246 64.125, -0.4187817148550863 64.125, -77.984375 64.125 M77.984375 64.125 C15.8092228838102 64.125, -46.3659292323796 64.125, -77.984375 64.125 M-77.984375 64.125 C-77.984375 54.18558226409409, -77.984375 44.246164528188174, -77.984375 21.375 M-77.984375 64.125 C-77.984375 54.40551199644359, -77.984375 44.68602399288719, -77.984375 21.375" stroke="#475569" stroke-width="1.3" fill="none" stroke-dasharray="0 0"></path></g><g class="label name" transform="translate(-32.7734375, -54.75)" style=""><foreignObject width="65.546875" height="24"><div xmlns="http://www.w3.org/1999/xhtml" style="display: table-cell; white-space: nowrap; line-height: 1.5; max-width: 175px; text-align: start;"><span class="nodeLabel"><p>DECISION</p></span></div></foreignObject></g><g class="label attribute-type" transform="translate(-65.484375, -12)" style=""><foreignObject width="40.375" height="24"><div xmlns="http://www.w3.org/1999/xhtml" style="display: table-cell; white-space: nowrap; line-height: 1.5; max-width: 136px; text-align: start;"><span class="nodeLabel"><p>string</p></span></div></foreignObject></g><g class="label attribute-name" transform="translate(-0.109375, -12)" style=""><foreignObject width="42.796875" height="24"><div xmlns="http://www.w3.org/1999/xhtml" style="display: table-cell; white-space: nowrap; line-height: 1.5; max-width: 136px; text-align: start;"><span class="nodeLabel"><p>status</p></span></div></foreignObject></g><g class="label attribute-keys" transform="translate(90.484375, -12)" style=""><foreignObject width="0" height="0"><div xmlns="http://www.w3.org/1999/xhtml" style="display: table-cell; white-space: nowrap; line-height: 1.5; max-width: 100px; text-align: start;"><span class="nodeLabel"></span></div></foreignObject></g><g class="label attribute-comment" transform="translate(90.484375, -12)" style=""><foreignObject width="0" height="0"><div xmlns="http://www.w3.org/1999/xhtml" style="display: table-cell; white-space: nowrap; line-height: 1.5; max-width: 100px; text-align: start;"><span class="nodeLabel"></span></div></foreignObject></g><g class="label attribute-type" transform="translate(-65.484375, 30.75)" style=""><foreignObject width="40.375" height="24"><div xmlns="http://www.w3.org/1999/xhtml" style="display: table-cell; white-space: nowrap; line-height: 1.5; max-width: 136px; text-align: start;"><span class="nodeLabel"><p>string</p></span></div></foreignObject></g><g class="label attribute-name" transform="translate(-0.109375, 30.75)" style=""><foreignObject width="65.59375" height="24"><div xmlns="http://www.w3.org/1999/xhtml" style="display: table-cell; white-space: nowrap; line-height: 1.5; max-width: 158px; text-align: start;"><span class="nodeLabel"><p>feedback</p></span></div></foreignObject></g><g class="label attribute-keys" transform="translate(90.484375, 30.75)" style=""><foreignObject width="0" height="0"><div xmlns="http://www.w3.org/1999/xhtml" style="display: table-cell; white-space: nowrap; line-height: 1.5; max-width: 100px; text-align: start;"><span class="nodeLabel"></span></div></foreignObject></g><g class="label attribute-comment" transform="translate(90.484375, 30.75)" style=""><foreignObject width="0" height="0"><div xmlns="http://www.w3.org/1999/xhtml" style="display: table-cell; white-space: nowrap; line-height: 1.5; max-width: 100px; text-align: start;"><span class="nodeLabel"></span></div></foreignObject></g><g class="divider"><path d="M-77.984375 -21.37505 L-77.984375 -21.37495 L77.984375 -21.37495 L77.984375 -21.37505" stroke="none" stroke-width="0" fill="#1e293b" fill-rule="evenodd"></path><path d="M-77.984375 -21.37505 C-77.984375 -21.375023968205127, -77.984375 -21.37499793641025, -77.984375 -21.37495 M-77.984375 -21.37505 C-77.984375 -21.375024777255092, -77.984375 -21.374999554510183, -77.984375 -21.37495 M-77.984375 -21.37495 C-23.31843869244976 -21.37495, 31.34749761510048 -21.37495, 77.984375 -21.37495 M-77.984375 -21.37495 C-17.564469497856273 -21.37495, 42.855436004287455 -21.37495, 77.984375 -21.37495 M77.984375 -21.37495 C77.984375 -21.374989582015168, 77.984375 -21.37502916403034, 77.984375 -21.37505 M77.984375 -21.37495 C77.984375 -21.374987174971313, 77.984375 -21.375024349942628, 77.984375 -21.37505 M77.984375 -21.37505 C25.090331357841308 -21.37505, -27.803712284317385 -21.37505, -77.984375 -21.37505 M77.984375 -21.37505 C20.250771730473794 -21.37505, -37.48283153905241 -21.37505, -77.984375 -21.37505" stroke="#475569" stroke-width="1.3" fill="none" stroke-dasharray="0 0"></path></g><g class="divider"><path d="M-12.609425 -21.375 L-12.609325 -21.375 L-12.609325 64.125 L-12.609425 64.125" stroke="none" stroke-width="0" fill="#1e293b" fill-rule="evenodd"></path><path d="M-12.609425 -21.375 C-12.609394664233985 -21.375, -12.609364328467972 -21.375, -12.609325 -21.375 M-12.609425 -21.375 C-12.609385845921967 -21.375, -12.609346691843935 -21.375, -12.609325 -21.375 M-12.609325 -21.375 C-12.609325 1.8205229177680877, -12.609325 25.016045835536175, -12.609325 64.125 M-12.609325 -21.375 C-12.609325 9.167263799972076, -12.609325 39.70952759994415, -12.609325 64.125 M-12.609325 64.125 C-12.609353682572165 64.125, -12.609382365144329 64.125, -12.609425 64.125 M-12.609325 64.125 C-12.609353229724968 64.125, -12.609381459449937 64.125, -12.609425 64.125 M-12.609425 64.125 C-12.609425 31.915068630001294, -12.609425 -0.29486273999741286, -12.609425 -21.375 M-12.609425 64.125 C-12.609425 34.27941460383469, -12.609425 4.433829207669376, -12.609425 -21.375" stroke="#475569" stroke-width="1.3" fill="none" stroke-dasharray="0 0"></path></g><g class="divider"><path d="M-77.984375 -21.37505 L-77.984375 -21.37495 L77.984375 -21.37495 L77.984375 -21.37505" stroke="none" stroke-width="0" fill="#1e293b" fill-rule="evenodd"></path><path d="M-77.984375 -21.37505 C-77.984375 -21.37502311832401, -77.984375 -21.374996236648016, -77.984375 -21.37495 M-77.984375 -21.37505 C-77.984375 -21.37501622605815, -77.984375 -21.3749824521163, -77.984375 -21.37495 M-77.984375 -21.37495 C-42.467065382069826 -21.37495, -6.949755764139653 -21.37495, 77.984375 -21.37495 M-77.984375 -21.37495 C-15.732678724244856 -21.37495, 46.51901755151029 -21.37495, 77.984375 -21.37495 M77.984375 -21.37495 C77.984375 -21.374983543772167, 77.984375 -21.375017087544336, 77.984375 -21.37505 M77.984375 -21.37495 C77.984375 -21.374983911313745, 77.984375 -21.375017822627488, 77.984375 -21.37505 M77.984375 -21.37505 C42.223893072482866 -21.37505, 6.4634111449657325 -21.37505, -77.984375 -21.37505 M77.984375 -21.37505 C25.969874895643876 -21.37505, -26.044625208712247 -21.37505, -77.984375 -21.37505" stroke="#475569" stroke-width="1.3" fill="none" stroke-dasharray="0 0"></path></g></g><g class="node default" id="diagram-fixture-entity-REVIEWER-4" data-look="classic" transform="translate(371.765625, 692)"><rect class="basic label-container" style="" x="-55.9140625" y="-42" width="111.828125" height="84"></rect><g class="label" style="" transform="translate(-35.9140625, -12)"><rect></rect><foreignObject width="71.828125" height="24"><div xmlns="http://www.w3.org/1999/xhtml" style="display: table-cell; white-space: nowrap; line-height: 1.5; max-width: 200px; text-align: center;"><span class="nodeLabel markdown-node-label"><p>REVIEWER</p></span></div></foreignObject></g></g></g></g></g><defs><filter id="diagram-fixture-drop-shadow" height="130%" width="130%"><feDropShadow dx="4" dy="4" stdDeviation="0" flood-opacity="0.06" flood-color="#FFFFFF"></feDropShadow></filter></defs><defs><filter id="diagram-fixture-drop-shadow-small" height="150%" width="150%"><feDropShadow dx="2" dy="2" stdDeviation="0" flood-opacity="0.06" flood-color="#FFFFFF"></feDropShadow></filter></defs><linearGradient id="diagram-fixture-gradient" gradientUnits="objectBoundingBox" x1="0%" y1="0%" x2="100%" y2="0%"><stop offset="0%" stop-color="#cccccc" stop-opacity="1"></stop><stop offset="100%" stop-color="hsl(180, 0%, 18.3529411765%)" stop-opacity="1"></stop></linearGradient></svg>